<svg width="60" height="60" viewBox="0 0 60 60" fill="none" xmlns="http://www.w3.org/2000/svg">
<rect width="60" height="60" rx="30" fill="white"/>
<path d="M31 21C35.4183 21 39 24.5817 39 29M31.5 24.5C33.7091 24.5 35.5 26.2909 35.5 28.5" stroke="#DE968D" stroke-width="1.5" stroke-linecap="round" stroke-linejoin="round"/>
<path d="M27.1583 23.7122L26.7556 22.8063C26.4923 22.2139 26.3607 21.9177 26.1638 21.691C25.9171 21.4069 25.5955 21.1979 25.2357 21.0879C24.9486 21 24.6245 21 23.9762 21C23.0279 21 22.5538 21 22.1557 21.1823C21.6869 21.397 21.2634 21.8633 21.0947 22.3506C20.9515 22.7643 20.9925 23.1894 21.0746 24.0397C21.9479 33.0902 26.9098 38.0521 35.9603 38.9254C36.8106 39.0075 37.2357 39.0485 37.6494 38.9053C38.1367 38.7366 38.603 38.3131 38.8177 37.8443C39 37.4462 39 36.9721 39 36.0238C39 35.3755 39 35.0514 38.9122 34.7643C38.8021 34.4045 38.5931 34.0829 38.309 33.8362C38.0823 33.6393 37.7861 33.5077 37.1937 33.2444L36.2878 32.8417C35.6462 32.5566 35.3255 32.4141 34.9995 32.3831C34.6876 32.3534 34.3731 32.3972 34.0811 32.5109C33.776 32.6297 33.5063 32.8544 32.967 33.3038C32.4301 33.7512 32.1617 33.9749 31.8337 34.0947C31.543 34.2009 31.1586 34.2403 30.8523 34.1951C30.5069 34.1442 30.2423 34.0029 29.7133 33.7201C28.0672 32.8405 27.1595 31.9328 26.2799 30.2867C25.9971 29.7577 25.8558 29.4931 25.8049 29.1477C25.7597 28.8414 25.7991 28.457 25.9053 28.1663C26.0251 27.8383 26.2488 27.5699 26.6962 27.033C27.1456 26.4937 27.3703 26.224 27.4892 25.9189C27.6029 25.6269 27.6466 25.3124 27.6169 25.0005C27.5859 24.6745 27.4434 24.3538 27.1583 23.7122Z" fill="#DE968D" stroke="#DE968D" stroke-width="1.5" stroke-linecap="round"/>
</svg>
