<svg width="17" height="17" viewBox="0 0 17 17" fill="none" xmlns="http://www.w3.org/2000/svg">
<path d="M5.88188 3.01019L5.54633 2.25521C5.32693 1.76157 5.21723 1.51473 5.05317 1.32584C4.84756 1.08912 4.57956 0.91495 4.27973 0.823208C4.04049 0.75 3.77038 0.75 3.23017 0.75C2.43992 0.75 2.0448 0.75 1.71311 0.901908C1.32239 1.08085 0.969531 1.4694 0.828939 1.8755C0.709589 2.22024 0.743781 2.57452 0.812148 3.28308C1.53992 10.8251 5.67485 14.9601 13.2169 15.6879C13.9255 15.7562 14.2798 15.7904 14.6245 15.671C15.0306 15.5305 15.4191 15.1776 15.5981 14.7869C15.75 14.4552 15.75 14.0601 15.75 13.2698C15.75 12.7296 15.75 12.4595 15.6768 12.2203C15.585 11.9205 15.4109 11.6525 15.1741 11.4468C14.9853 11.2828 14.7385 11.173 14.2448 10.9536L13.4898 10.6181C12.9552 10.3805 12.6879 10.2617 12.4163 10.2359C12.1563 10.2111 11.8942 10.2476 11.6509 10.3424C11.3966 10.4414 11.172 10.6286 10.7225 11.0032C10.2751 11.376 10.0515 11.5624 9.77813 11.6622C9.5358 11.7508 9.21546 11.7836 8.9603 11.746C8.67238 11.7036 8.45196 11.5857 8.01105 11.3501C6.63938 10.6171 5.88294 9.86063 5.14989 8.48897C4.91428 8.04805 4.79648 7.82763 4.75406 7.53972C4.71645 7.28455 4.74923 6.96422 4.83775 6.72188C4.9376 6.44857 5.12401 6.22488 5.49682 5.7775C5.87135 5.32807 6.05861 5.10335 6.15762 4.84909C6.25237 4.60578 6.28885 4.34367 6.26412 4.08373C6.23828 3.8121 6.11948 3.5448 5.88188 3.01019Z" fill="#DE968D" stroke="#DE968D" stroke-width="1.5" stroke-linecap="round"/>
</svg>
