<svg width="55" height="55" viewBox="0 0 55 55" fill="none" xmlns="http://www.w3.org/2000/svg">
<path d="M27.4999 50.4167C40.1564 50.4167 50.4166 40.1566 50.4166 27.5C50.4166 14.8435 40.1564 4.58337 27.4999 4.58337C14.8434 4.58337 4.58325 14.8435 4.58325 27.5C4.58325 40.1566 14.8434 50.4167 27.4999 50.4167Z" fill="white" fill-opacity="0.6" stroke="white" stroke-opacity="0.6" stroke-width="1.5"/>
<path d="M21.7708 25.6662V29.3338C21.7708 32.8155 21.7708 34.5562 22.8152 35.26C23.8596 35.9635 25.288 35.1851 28.145 33.6281L31.5096 31.7941C34.9476 29.9204 36.6666 28.9836 36.6666 27.5C36.6666 26.0163 34.9476 25.0795 31.5096 23.2058L28.145 21.3719C25.288 19.8149 23.8596 19.0363 22.8152 19.74C21.7708 20.4436 21.7708 22.1844 21.7708 25.6662Z" fill="white" fill-opacity="0.8"/>
</svg>
