<svg width="20" height="20" viewBox="0 0 20 20" fill="none" xmlns="http://www.w3.org/2000/svg">
<path d="M9.99935 18.3334C5.39697 18.3334 1.66602 14.6024 1.66602 10C1.66602 7.6729 2.61989 5.56858 4.15799 4.0567M9.99935 18.3334C9.19685 17.7387 9.32493 17.0463 9.72752 16.3539C10.3465 15.2895 10.3465 15.2895 10.3465 13.8704C10.3465 12.4512 11.1898 11.7858 14.166 12.3809C15.5033 12.6484 16.4778 10.8008 18.2138 11.4109M9.99935 18.3334C14.1208 18.3334 17.5435 15.3414 18.2138 11.4109M4.15799 4.0567C4.86573 4.1314 5.26199 4.51055 5.92015 5.20599C7.16968 6.52629 8.41918 6.63645 9.25227 6.19635C10.5018 5.53621 9.45177 4.46694 10.9183 3.88584C11.8173 3.52961 11.9887 2.59668 11.5632 1.81318M4.15799 4.0567C5.66181 2.57853 7.72409 1.66669 9.99935 1.66669C10.5338 1.66669 11.0566 1.71701 11.5632 1.81318M18.2138 11.4109C18.2919 10.9523 18.3327 10.4809 18.3327 10C18.3327 5.93216 15.418 2.54506 11.5632 1.81318" stroke="#DE968D" stroke-width="1.25" stroke-linejoin="round"/>
</svg>
